<?xml version="1.0" encoding="utf-8"?>
<!-- Generator: Adobe Illustrator 26.0.0, SVG Export Plug-In . SVG Version: 6.00 Build 0)  -->
<svg version="1.1" id="logo-40" xmlns="http://www.w3.org/2000/svg" xmlns:xlink="http://www.w3.org/1999/xlink" x="0px" y="0px"
	 viewBox="0 0 171 32" style="enable-background:new 0 0 171 32;" xml:space="preserve">
<style type="text/css">
	.st0{fill:#4845D2;}
	.st1{fill:#A5B4FC;}
	.st2{fill:#FFFFFF;}
</style>
<path class="st0" d="M0,16C0,7.2,7.2,0,16,0h21c8.8,0,16,7.2,16,16v16H16C7.2,32,0,24.8,0,16z"/>
<path class="st1" d="M16,6h21c5.5,0,10,4.5,10,10l0,0c0,5.5-4.5,10-10,10H16c-5.5,0-10-4.5-10-10l0,0C6,10.5,10.5,6,16,6z"/>
<circle cx="16" cy="16" r="5"/>
<circle class="st2" cx="14" cy="14" r="1"/>
<circle cx="38" cy="16" r="5"/>
<circle class="st2" cx="36" cy="14" r="1"/>
<g>
	<path class="st0" d="M73.1,10.5c0,0.2-0.1,0.3-0.3,0.3c-0.3,0-1.7-0.1-4.1-0.2c-0.1,2.3-0.1,3.9-0.1,4.8c0,1.1,0,2.7,0.1,4.9
		s0.1,3.8,0.1,4.9c0,0.2,0,0.3-0.1,0.3c0,0-0.2,0-0.4,0.1c-0.5,0.1-1.4,0.1-2.4,0.1c-1.2,0-2,0-2.5-0.1c-0.3,0-0.4-0.2-0.4-0.4
		c0-1.1,0-2.7,0.1-4.9s0.1-3.8,0.1-4.9c0-0.7,0-2.3-0.1-4.8c-1.8,0.2-3.3,0.3-4.4,0.3c-0.1,0-0.2,0-0.2-0.1s0.1-0.5,0.2-1.1
		c0.1-0.6,0.2-1,0.2-1.2c0.2-0.4,0.2-0.8,0.2-1.2c0.1-0.7,0.2-1,0.3-1c0,0,0.1,0,0.2,0c1.5,0.2,3.7,0.3,6.6,0.3
		c0.8,0,2.3-0.1,4.6-0.3c1.2-0.1,1.8-0.1,1.8-0.1c0.2,0,0.3,0,0.3,0s0,0.1,0.1,0.3c0,0.2,0,0.6,0,1c0,0.5,0,0.8,0,1s0,0.6,0.1,1
		C73.1,9.9,73.1,10.3,73.1,10.5z"/>
	<path class="st0" d="M87.7,18.8c0,2.1-0.6,3.8-1.9,5.1c-1.3,1.3-3,2-5,2s-3.7-0.6-5-1.9s-2-2.9-2-4.9c0-2.1,0.6-3.8,1.9-5.2
		c1.2-1.3,2.9-2,5.1-2c2.1,0,3.7,0.6,5,1.9S87.7,16.7,87.7,18.8z M83.2,18.8c0-0.7-0.2-1.4-0.7-1.9c-0.4-0.6-1-0.8-1.7-0.8
		S79.5,16.4,79,17c-0.4,0.5-0.7,1.2-0.7,1.9c0,0.7,0.2,1.4,0.7,1.9c0.5,0.6,1.1,0.9,1.8,0.9c0.7,0,1.3-0.3,1.8-0.9
		C83,20.2,83.2,19.5,83.2,18.8z"/>
	<path class="st0" d="M103.9,6.1c0-0.2,0,0.1-0.1,0.9c-0.1,1-0.2,2.3-0.2,3.9c-0.1,1.8-0.1,3.8-0.1,6.1c0,3.8,0.1,6.5,0.3,8.1
		c0,0.2,0,0.3,0,0.3c0,0.1-0.1,0.2-0.2,0.2c-0.3,0-1.5,0.1-3.6,0.1c-0.5,0-0.8-0.1-0.9-0.3c0-0.3,0-0.7-0.1-1c0-0.1,0-0.1-0.1-0.2
		c-0.1,0-0.1,0.1-0.2,0.2c-1,1-2.2,1.5-3.7,1.5c-1.9,0-3.5-0.7-4.6-2S88.7,21,88.7,19s0.5-3.6,1.6-4.9C91.5,12.7,93,12,95,12
		c1.4,0,2.5,0.4,3.2,1.3c0.1,0.1,0.2,0.2,0.3,0.2c0.1,0,0.1-0.1,0.1-0.4c0-0.7,0-1.8-0.1-3.2c0-1.4-0.1-2.4-0.1-3.1
		c0-0.3,0.1-0.4,0.2-0.5c0.6,0,1.4-0.1,2.4-0.2c1.8-0.2,2.6-0.3,2.4-0.3C103.8,5.7,103.9,5.8,103.9,6.1z M98.7,18.7
		c0-0.7-0.3-1.4-0.8-1.9S96.8,16,96.1,16c-0.8,0-1.3,0.3-1.8,0.8c-0.4,0.5-0.7,1.2-0.7,2c0,0.7,0.2,1.4,0.7,1.9s1.1,0.8,1.8,0.8
		c0.7,0,1.3-0.3,1.8-0.8C98.5,20.1,98.7,19.4,98.7,18.7z"/>
	<path class="st0" d="M119.2,18.8c0,2.1-0.6,3.8-1.9,5.1c-1.3,1.3-3,2-5,2s-3.7-0.6-5-1.9s-2-2.9-2-4.9c0-2.1,0.6-3.8,1.9-5.2
		c1.2-1.3,2.9-2,5.1-2c2.1,0,3.7,0.6,5,1.9S119.2,16.7,119.2,18.8z M114.7,18.8c0-0.7-0.2-1.4-0.7-1.9c-0.4-0.6-1-0.8-1.7-0.8
		s-1.3,0.3-1.8,0.9c-0.4,0.5-0.7,1.2-0.7,1.9c0,0.7,0.2,1.4,0.7,1.9c0.5,0.6,1.1,0.9,1.8,0.9c0.7,0,1.3-0.3,1.8-0.9
		C114.4,20.2,114.7,19.5,114.7,18.8z"/>
	<path class="st0" d="M140.6,25.8c-0.8,0-1.8,0-3.1-0.1c-1.6,0-2.7-0.1-3.1-0.1l-4.1-0.1c-0.4,0-1,0-1.8-0.1c-0.3,0-0.4-0.2-0.4-0.4
		c0-1,0-2.5,0-4.5s0-3.5,0-4.5c0-1.1,0-2.7-0.1-4.8s0.1-3.5,0.1-4.6c0-0.2,0.1-0.3,0.4-0.3s0.7,0,1.2,0s0.9,0,1.2,0
		c0.3,0,0.8,0,1.3,0s1,0,1.3,0c0.1,0,0.2,0.1,0.2,0.3v0.2c-0.1,1.7-0.2,4.3-0.4,7.8v3.6c0,1.2,0,2,0,2.6c0,0.1,0,0.2,0,0.3
		c0,0.1,0.1,0.2,0.2,0.2c0,0,0.1,0,0.4,0c0.8,0,2.1,0,3.7-0.1c1.6-0.1,2.9-0.1,3.7-0.1c0.2,0,0.4,0.1,0.4,0.3c0,1.6-0.1,2.9-0.3,4.1
		c0,0.2-0.1,0.4-0.3,0.4C141.1,25.8,140.9,25.8,140.6,25.8z"/>
	<path class="st0" d="M148.3,19.3c0,0.7,0,1.7,0,3s0,2.3,0,3c0,0.2-0.1,0.3-0.3,0.3c-0.3,0.1-1,0.1-2.1,0.1s-1.8,0-2.1-0.1
		c-0.2,0-0.3-0.1-0.4-0.2c0,0,0-0.2,0-0.4c0-0.6,0-1.6,0-2.9s0-2.2,0-2.9c0-2.6-0.1-4.7-0.3-6.2c0-0.1,0-0.2,0-0.3
		c0-0.2,0.1-0.3,0.4-0.3c0.3,0,0.6,0,1.2,0.1c0.5,0.1,0.9,0.1,1.2,0.1s0.7,0,1.2-0.1c0.5,0,0.9-0.1,1.2-0.1c0.2,0,0.3,0.1,0.3,0.3
		c0,0,0,0.1,0,0.3C148.4,14.8,148.3,16.9,148.3,19.3z M148.7,9.1c0,1.6-0.9,2.4-2.7,2.4c-0.8,0-1.4-0.2-1.9-0.6
		c-0.5-0.4-0.8-1-0.8-1.8c0-0.7,0.3-1.3,0.9-1.8c0.5-0.4,1.1-0.6,1.9-0.6c0.7,0,1.3,0.2,1.9,0.6C148.4,7.8,148.7,8.3,148.7,9.1z"/>
	<path class="st0" d="M159,14.5c0,0.1-0.1,0.2-0.2,0.4c-0.3-0.1-0.5-0.1-0.8-0.1c-0.5,0-1,0.1-1.4,0.4c-0.4,0.3-0.7,0.7-0.7,1.2
		c0,0.3,0.2,0.7,0.7,1.2c0.7,0.7,1.1,1.2,1.3,1.5c0.5,0.7,0.7,1.4,0.7,2.2c0,0.5-0.1,1-0.3,1.5c-0.2,0.6-0.5,1-0.8,1.3
		c-0.7,0.6-1.5,1.1-2.4,1.5c-1,0.4-1.9,0.6-2.7,0.6c-0.2,0-0.6-0.5-1.2-1.5c-0.6-1-1-1.6-1-1.8c0-0.1,0-0.1,0.2-0.2
		c0.6-0.1,1.3-0.2,1.9-0.4c0.8-0.3,1.2-0.7,1.2-1.3c0-0.4-0.2-0.9-0.7-1.4c-0.8-0.9-1.3-1.4-1.3-1.5c-0.5-0.7-0.7-1.4-0.7-2.1
		c0-1.4,0.7-2.5,2.1-3.5c1.2-0.9,2.6-1.3,4-1.3c0.1,0,0.5,0.5,1.1,1.5C158.7,13.7,159,14.3,159,14.5z"/>
	<path class="st0" d="M170.2,21.5c0,0.3,0,0.7-0.1,1.2c-0.1,0.6-0.1,1-0.1,1.2c0,0.3,0,0.4-0.1,0.5s-0.2,0.2-0.5,0.3
		c-1.2,0.7-2.5,1-3.9,1c-2.6,0-4-1-4-3c0-0.6,0-1.5,0.1-2.7c0-1.2,0.1-2.1,0.1-2.7c0-0.4-0.2-0.6-0.7-0.6c0,0-0.1,0-0.2,0
		c-0.1,0-0.1,0-0.2,0c-0.3,0-0.5-0.1-0.5-0.4c0-0.1,0-0.4,0-0.7s0-0.5,0-0.7s0-0.5,0-0.9s0-0.7,0-0.9s0.3-0.3,0.9-0.3
		c0.3,0,0.5-0.1,0.5-0.3c0.1-0.3,0.1-0.9,0.1-1.6c0-1.2-0.1-1.7-0.1-1.7c0-1.1,0.1-1.6,0.3-1.6s0.6,0.1,1.1,0.2S163.8,8,164,8
		c0.5,0.1,1.2,0.2,2.1,0.3c0.2,0,0.3,0.1,0.3,0.2c0,0.4,0,0.9-0.1,1.7s-0.1,1.3-0.1,1.7s0.1,0.7,0.4,0.7c0.3,0,0.8,0,1.5,0
		s1.1,0,1.5,0c0.2,0,0.3,0.1,0.3,0.2c0,0.2,0,0.5-0.1,0.9c0,0.4-0.1,0.7-0.1,0.9s0,0.5,0,1c0,0.4,0,0.7,0,1c0,0.2-0.1,0.3-0.4,0.3
		c-0.2,0-0.5,0-0.9,0s-0.7,0-0.9,0h-1c-0.1,0-0.2,0.2-0.2,0.6c0,0.2,0,0.5,0,1c0,0.4,0,0.8,0,1c0,0.8,0.1,1.3,0.3,1.6
		c0.2,0.4,0.7,0.6,1.5,0.6c0.2,0,0.6-0.1,1-0.2s0.7-0.2,0.9-0.2C170.1,21.2,170.2,21.3,170.2,21.5z"/>
</g>
</svg>
